<mxfile host="drawio-plugin" modified="2022-10-10T13:34:39.096Z" agent="5.0 (X11; Linux x86_64) AppleWebKit/537.36 (KHTML, like Gecko) Chrome/98.0.4758.102 Safari/537.36" etag="ia4uEniEbfJzY1yzf7lg" version="15.5.4" type="embed"><diagram id="C5RBs43oDa-KdzZeNtuy" name="Page-1"><mxGraphModel dx="1283" dy="1033" grid="1" gridSize="10" guides="1" tooltips="1" connect="1" arrows="1" fold="1" page="1" pageScale="1" pageWidth="827" pageHeight="1169" background="#F1FAEE" math="0" shadow="0"><root><mxCell id="WIyWlLk6GJQsqaUBKTNV-0"/><mxCell id="WIyWlLk6GJQsqaUBKTNV-1" parent="WIyWlLk6GJQsqaUBKTNV-0"/><mxCell id="WIyWlLk6GJQsqaUBKTNV-2" value="" style="html=1;jettySize=auto;orthogonalLoop=1;fontSize=11;endArrow=block;endFill=0;endSize=8;strokeWidth=1;shadow=0;labelBackgroundColor=none;edgeStyle=orthogonalEdgeStyle;strokeColor=#457B9D;fontColor=#1D3557;" parent="WIyWlLk6GJQsqaUBKTNV-1" source="WIyWlLk6GJQsqaUBKTNV-3" target="ysVK2l12Keg3ZwGEDK91-8" edge="1"><mxGeometry relative="1" as="geometry"><mxPoint x="140" y="130" as="targetPoint"/></mxGeometry></mxCell><mxCell id="WIyWlLk6GJQsqaUBKTNV-3" value="&lt;div&gt;Player.TryAttack(enemyName)&lt;/div&gt;" style="html=1;fontSize=12;glass=0;strokeWidth=1;shadow=0;align=center;verticalAlign=middle;whiteSpace=wrap;fillColor=#A8DADC;strokeColor=#457B9D;fontColor=#1D3557;rounded=1;" parent="WIyWlLk6GJQsqaUBKTNV-1" vertex="1"><mxGeometry x="50" y="40" width="180" height="40" as="geometry"/></mxCell><mxCell id="ysVK2l12Keg3ZwGEDK91-2" value="[enemy in room]" style="edgeStyle=orthogonalEdgeStyle;orthogonalLoop=1;jettySize=auto;html=1;endArrow=block;endFill=0;labelBackgroundColor=#F1FAEE;strokeColor=#457B9D;fontColor=#1D3557;" parent="WIyWlLk6GJQsqaUBKTNV-1" source="ysVK2l12Keg3ZwGEDK91-8" target="ysVK2l12Keg3ZwGEDK91-27" edge="1"><mxGeometry relative="1" as="geometry"><mxPoint x="140" y="260" as="targetPoint"/><mxPoint x="140" y="210" as="sourcePoint"/></mxGeometry></mxCell><mxCell id="ysVK2l12Keg3ZwGEDK91-3" value="[No enemy in room]" style="edgeStyle=orthogonalEdgeStyle;orthogonalLoop=1;jettySize=auto;html=1;endArrow=block;endFill=0;labelBackgroundColor=#F1FAEE;strokeColor=#457B9D;fontColor=#1D3557;" parent="WIyWlLk6GJQsqaUBKTNV-1" source="ysVK2l12Keg3ZwGEDK91-8" target="ysVK2l12Keg3ZwGEDK91-1" edge="1"><mxGeometry relative="1" as="geometry"><mxPoint x="350" y="170" as="targetPoint"/><mxPoint x="180" y="170" as="sourcePoint"/></mxGeometry></mxCell><mxCell id="ysVK2l12Keg3ZwGEDK91-5" style="edgeStyle=orthogonalEdgeStyle;orthogonalLoop=1;jettySize=auto;html=1;endArrow=block;endFill=0;labelBackgroundColor=#F1FAEE;strokeColor=#457B9D;fontColor=#1D3557;" parent="WIyWlLk6GJQsqaUBKTNV-1" source="ysVK2l12Keg3ZwGEDK91-1" target="ysVK2l12Keg3ZwGEDK91-4" edge="1"><mxGeometry relative="1" as="geometry"/></mxCell><mxCell id="ysVK2l12Keg3ZwGEDK91-1" value="Inform player &quot;enemy not found&quot;" style="whiteSpace=wrap;html=1;fillColor=#A8DADC;strokeColor=#457B9D;fontColor=#1D3557;rounded=1;" parent="WIyWlLk6GJQsqaUBKTNV-1" vertex="1"><mxGeometry x="407" y="150" width="120" height="40" as="geometry"/></mxCell><mxCell id="ysVK2l12Keg3ZwGEDK91-4" value="" style="ellipse;html=1;shape=endState;fillColor=#A8DADC;strokeColor=#457B9D;fontColor=#1D3557;rounded=1;" parent="WIyWlLk6GJQsqaUBKTNV-1" vertex="1"><mxGeometry x="612" y="155" width="30" height="30" as="geometry"/></mxCell><mxCell id="ysVK2l12Keg3ZwGEDK91-9" style="edgeStyle=orthogonalEdgeStyle;orthogonalLoop=1;jettySize=auto;html=1;endArrow=block;endFill=0;labelBackgroundColor=#F1FAEE;strokeColor=#457B9D;fontColor=#1D3557;" parent="WIyWlLk6GJQsqaUBKTNV-1" source="ysVK2l12Keg3ZwGEDK91-7" target="ysVK2l12Keg3ZwGEDK91-10" edge="1"><mxGeometry relative="1" as="geometry"><mxPoint x="340" y="366.9999999999999" as="targetPoint"/></mxGeometry></mxCell><mxCell id="ysVK2l12Keg3ZwGEDK91-11" value="[weapon not equipped]" style="edgeLabel;html=1;align=center;verticalAlign=middle;resizable=0;points=[];labelBackgroundColor=#F1FAEE;fontColor=#1D3557;rounded=1;" parent="ysVK2l12Keg3ZwGEDK91-9" vertex="1" connectable="0"><mxGeometry x="0.1318" relative="1" as="geometry"><mxPoint x="-10" as="offset"/></mxGeometry></mxCell><mxCell id="ysVK2l12Keg3ZwGEDK91-15" value="[weapon equipped]" style="edgeStyle=orthogonalEdgeStyle;orthogonalLoop=1;jettySize=auto;html=1;endArrow=block;endFill=0;labelBackgroundColor=#F1FAEE;strokeColor=#457B9D;fontColor=#1D3557;" parent="WIyWlLk6GJQsqaUBKTNV-1" source="ysVK2l12Keg3ZwGEDK91-7" target="ysVK2l12Keg3ZwGEDK91-14" edge="1"><mxGeometry relative="1" as="geometry"><Array as="points"><mxPoint x="140" y="427"/><mxPoint x="130" y="427"/></Array></mxGeometry></mxCell><mxCell id="ysVK2l12Keg3ZwGEDK91-7" value="" style="rhombus;fillColor=#A8DADC;strokeColor=#457B9D;fontColor=#1D3557;rounded=1;" parent="WIyWlLk6GJQsqaUBKTNV-1" vertex="1"><mxGeometry x="125" y="352" width="30" height="30" as="geometry"/></mxCell><mxCell id="ysVK2l12Keg3ZwGEDK91-8" value="" style="rhombus;fillColor=#A8DADC;strokeColor=#457B9D;fontColor=#1D3557;rounded=1;" parent="WIyWlLk6GJQsqaUBKTNV-1" vertex="1"><mxGeometry x="125" y="155" width="30" height="30" as="geometry"/></mxCell><mxCell id="ysVK2l12Keg3ZwGEDK91-13" style="edgeStyle=orthogonalEdgeStyle;orthogonalLoop=1;jettySize=auto;html=1;endArrow=block;endFill=0;labelBackgroundColor=#F1FAEE;strokeColor=#457B9D;fontColor=#1D3557;" parent="WIyWlLk6GJQsqaUBKTNV-1" source="ysVK2l12Keg3ZwGEDK91-10" target="ysVK2l12Keg3ZwGEDK91-12" edge="1"><mxGeometry relative="1" as="geometry"/></mxCell><mxCell id="ysVK2l12Keg3ZwGEDK91-10" value="Inform player &quot;weapon not equipped&quot;" style="whiteSpace=wrap;html=1;fillColor=#A8DADC;strokeColor=#457B9D;fontColor=#1D3557;rounded=1;" parent="WIyWlLk6GJQsqaUBKTNV-1" vertex="1"><mxGeometry x="407" y="347" width="120" height="40" as="geometry"/></mxCell><mxCell id="ysVK2l12Keg3ZwGEDK91-12" value="" style="ellipse;html=1;shape=endState;fillColor=#A8DADC;strokeColor=#457B9D;fontColor=#1D3557;rounded=1;" parent="WIyWlLk6GJQsqaUBKTNV-1" vertex="1"><mxGeometry x="612" y="352" width="30" height="30" as="geometry"/></mxCell><mxCell id="ysVK2l12Keg3ZwGEDK91-17" style="edgeStyle=orthogonalEdgeStyle;orthogonalLoop=1;jettySize=auto;html=1;endArrow=block;endFill=0;labelBackgroundColor=#F1FAEE;strokeColor=#457B9D;fontColor=#1D3557;" parent="WIyWlLk6GJQsqaUBKTNV-1" source="ysVK2l12Keg3ZwGEDK91-14" target="ysVK2l12Keg3ZwGEDK91-16" edge="1"><mxGeometry relative="1" as="geometry"/></mxCell><mxCell id="ysVK2l12Keg3ZwGEDK91-18" value="[cannot use weapon]" style="edgeLabel;html=1;align=center;verticalAlign=middle;resizable=0;points=[];labelBackgroundColor=#F1FAEE;fontColor=#1D3557;rounded=1;" parent="ysVK2l12Keg3ZwGEDK91-17" vertex="1" connectable="0"><mxGeometry x="-0.3976" relative="1" as="geometry"><mxPoint x="39" as="offset"/></mxGeometry></mxCell><mxCell id="ysVK2l12Keg3ZwGEDK91-22" value="[weapon can be used]" style="edgeStyle=orthogonalEdgeStyle;orthogonalLoop=1;jettySize=auto;html=1;endArrow=block;endFill=0;labelBackgroundColor=#F1FAEE;strokeColor=#457B9D;fontColor=#1D3557;" parent="WIyWlLk6GJQsqaUBKTNV-1" source="ysVK2l12Keg3ZwGEDK91-14" target="ysVK2l12Keg3ZwGEDK91-19" edge="1"><mxGeometry relative="1" as="geometry"/></mxCell><mxCell id="ysVK2l12Keg3ZwGEDK91-14" value="" style="rhombus;fillColor=#A8DADC;strokeColor=#457B9D;fontColor=#1D3557;rounded=1;" parent="WIyWlLk6GJQsqaUBKTNV-1" vertex="1"><mxGeometry x="125" y="472" width="30" height="30" as="geometry"/></mxCell><mxCell id="ysVK2l12Keg3ZwGEDK91-25" style="edgeStyle=orthogonalEdgeStyle;orthogonalLoop=1;jettySize=auto;html=1;endArrow=block;endFill=0;labelBackgroundColor=#F1FAEE;strokeColor=#457B9D;fontColor=#1D3557;" parent="WIyWlLk6GJQsqaUBKTNV-1" source="ysVK2l12Keg3ZwGEDK91-16" target="ysVK2l12Keg3ZwGEDK91-23" edge="1"><mxGeometry relative="1" as="geometry"/></mxCell><mxCell id="ysVK2l12Keg3ZwGEDK91-16" value="Inform player &quot;weapon out of ammo&quot;" style="whiteSpace=wrap;html=1;fillColor=#A8DADC;strokeColor=#457B9D;fontColor=#1D3557;rounded=1;" parent="WIyWlLk6GJQsqaUBKTNV-1" vertex="1"><mxGeometry x="407" y="467" width="120" height="40" as="geometry"/></mxCell><mxCell id="ysVK2l12Keg3ZwGEDK91-26" style="edgeStyle=orthogonalEdgeStyle;orthogonalLoop=1;jettySize=auto;html=1;endArrow=block;endFill=0;labelBackgroundColor=#F1FAEE;strokeColor=#457B9D;fontColor=#1D3557;" parent="WIyWlLk6GJQsqaUBKTNV-1" source="ysVK2l12Keg3ZwGEDK91-19" target="ysVK2l12Keg3ZwGEDK91-34" edge="1"><mxGeometry relative="1" as="geometry"><mxPoint x="140" y="643" as="targetPoint"/></mxGeometry></mxCell><mxCell id="ysVK2l12Keg3ZwGEDK91-19" value="Inform player &quot;enemy attacked&quot;" style="whiteSpace=wrap;html=1;fillColor=#A8DADC;strokeColor=#457B9D;fontColor=#1D3557;rounded=1;" parent="WIyWlLk6GJQsqaUBKTNV-1" vertex="1"><mxGeometry x="80" y="553" width="120" height="40" as="geometry"/></mxCell><mxCell id="ysVK2l12Keg3ZwGEDK91-23" value="" style="ellipse;html=1;shape=endState;fillColor=#A8DADC;strokeColor=#457B9D;fontColor=#1D3557;rounded=1;" parent="WIyWlLk6GJQsqaUBKTNV-1" vertex="1"><mxGeometry x="612" y="472" width="30" height="30" as="geometry"/></mxCell><mxCell id="ysVK2l12Keg3ZwGEDK91-29" value="[enemy with matching name found]" style="edgeStyle=orthogonalEdgeStyle;orthogonalLoop=1;jettySize=auto;html=1;endArrow=block;endFill=0;labelBackgroundColor=#F1FAEE;strokeColor=#457B9D;fontColor=#1D3557;" parent="WIyWlLk6GJQsqaUBKTNV-1" source="ysVK2l12Keg3ZwGEDK91-27" target="ysVK2l12Keg3ZwGEDK91-7" edge="1"><mxGeometry relative="1" as="geometry"/></mxCell><mxCell id="ysVK2l12Keg3ZwGEDK91-30" value="[no enemies names matches enemyName]" style="edgeStyle=orthogonalEdgeStyle;orthogonalLoop=1;jettySize=auto;html=1;endArrow=block;endFill=0;labelBackgroundColor=#F1FAEE;strokeColor=#457B9D;fontColor=#1D3557;" parent="WIyWlLk6GJQsqaUBKTNV-1" source="ysVK2l12Keg3ZwGEDK91-27" target="ysVK2l12Keg3ZwGEDK91-28" edge="1"><mxGeometry relative="1" as="geometry"/></mxCell><mxCell id="ysVK2l12Keg3ZwGEDK91-27" value="" style="rhombus;fillColor=#A8DADC;strokeColor=#457B9D;fontColor=#1D3557;rounded=1;" parent="WIyWlLk6GJQsqaUBKTNV-1" vertex="1"><mxGeometry x="125" y="260" width="30" height="30" as="geometry"/></mxCell><mxCell id="ysVK2l12Keg3ZwGEDK91-28" value="Inform player &quot;enemy not found&quot;" style="whiteSpace=wrap;html=1;fillColor=#A8DADC;strokeColor=#457B9D;fontColor=#1D3557;rounded=1;" parent="WIyWlLk6GJQsqaUBKTNV-1" vertex="1"><mxGeometry x="408" y="255" width="120" height="40" as="geometry"/></mxCell><mxCell id="ysVK2l12Keg3ZwGEDK91-32" style="edgeStyle=orthogonalEdgeStyle;orthogonalLoop=1;jettySize=auto;html=1;endArrow=block;endFill=0;labelBackgroundColor=#F1FAEE;strokeColor=#457B9D;fontColor=#1D3557;" parent="WIyWlLk6GJQsqaUBKTNV-1" target="ysVK2l12Keg3ZwGEDK91-33" edge="1"><mxGeometry relative="1" as="geometry"><mxPoint x="526.9999999999998" y="275" as="sourcePoint"/></mxGeometry></mxCell><mxCell id="ysVK2l12Keg3ZwGEDK91-33" value="" style="ellipse;html=1;shape=endState;fillColor=#A8DADC;strokeColor=#457B9D;fontColor=#1D3557;rounded=1;" parent="WIyWlLk6GJQsqaUBKTNV-1" vertex="1"><mxGeometry x="612" y="260" width="30" height="30" as="geometry"/></mxCell><mxCell id="ysVK2l12Keg3ZwGEDK91-36" style="edgeStyle=orthogonalEdgeStyle;orthogonalLoop=1;jettySize=auto;html=1;endArrow=block;endFill=0;labelBackgroundColor=#F1FAEE;strokeColor=#457B9D;fontColor=#1D3557;" parent="WIyWlLk6GJQsqaUBKTNV-1" source="ysVK2l12Keg3ZwGEDK91-34" target="ysVK2l12Keg3ZwGEDK91-35" edge="1"><mxGeometry relative="1" as="geometry"/></mxCell><mxCell id="ysVK2l12Keg3ZwGEDK91-34" value="Player.Attack(enemy)" style="whiteSpace=wrap;html=1;fillColor=#A8DADC;strokeColor=#457B9D;fontColor=#1D3557;rounded=1;" parent="WIyWlLk6GJQsqaUBKTNV-1" vertex="1"><mxGeometry x="80" y="640" width="120" height="40" as="geometry"/></mxCell><mxCell id="ysVK2l12Keg3ZwGEDK91-37" value="[enemy defeated]" style="edgeStyle=orthogonalEdgeStyle;orthogonalLoop=1;jettySize=auto;html=1;endArrow=block;endFill=0;labelBackgroundColor=#F1FAEE;strokeColor=#457B9D;fontColor=#1D3557;" parent="WIyWlLk6GJQsqaUBKTNV-1" source="ysVK2l12Keg3ZwGEDK91-35" target="ysVK2l12Keg3ZwGEDK91-47" edge="1"><mxGeometry x="-0.8179" relative="1" as="geometry"><mxPoint x="140" y="830" as="targetPoint"/><Array as="points"/><mxPoint as="offset"/></mxGeometry></mxCell><mxCell id="ysVK2l12Keg3ZwGEDK91-38" value="[enemy still alive]" style="edgeStyle=orthogonalEdgeStyle;orthogonalLoop=1;jettySize=auto;html=1;endArrow=block;endFill=0;labelBackgroundColor=#F1FAEE;strokeColor=#457B9D;fontColor=#1D3557;" parent="WIyWlLk6GJQsqaUBKTNV-1" source="ysVK2l12Keg3ZwGEDK91-35" target="ysVK2l12Keg3ZwGEDK91-41" edge="1"><mxGeometry relative="1" as="geometry"><mxPoint x="250" y="740" as="targetPoint"/></mxGeometry></mxCell><mxCell id="ysVK2l12Keg3ZwGEDK91-35" value="" style="rhombus;fillColor=#A8DADC;strokeColor=#457B9D;fontColor=#1D3557;rounded=1;" parent="WIyWlLk6GJQsqaUBKTNV-1" vertex="1"><mxGeometry x="125" y="720" width="30" height="30" as="geometry"/></mxCell><mxCell id="ysVK2l12Keg3ZwGEDK91-40" value="[Attack again]" style="edgeStyle=orthogonalEdgeStyle;orthogonalLoop=1;jettySize=auto;html=1;endArrow=block;endFill=0;labelBackgroundColor=#F1FAEE;strokeColor=#457B9D;fontColor=#1D3557;" parent="WIyWlLk6GJQsqaUBKTNV-1" source="ysVK2l12Keg3ZwGEDK91-39" target="ysVK2l12Keg3ZwGEDK91-14" edge="1"><mxGeometry x="-0.8653" relative="1" as="geometry"><mxPoint x="90" y="490" as="targetPoint"/><Array as="points"><mxPoint x="710" y="735"/><mxPoint x="710" y="450"/><mxPoint x="150" y="450"/></Array><mxPoint as="offset"/></mxGeometry></mxCell><mxCell id="ysVK2l12Keg3ZwGEDK91-43" value="[player flees]" style="edgeStyle=orthogonalEdgeStyle;orthogonalLoop=1;jettySize=auto;html=1;endArrow=block;endFill=0;labelBackgroundColor=#F1FAEE;strokeColor=#457B9D;fontColor=#1D3557;" parent="WIyWlLk6GJQsqaUBKTNV-1" source="ysVK2l12Keg3ZwGEDK91-39" target="ysVK2l12Keg3ZwGEDK91-49" edge="1"><mxGeometry x="-0.8176" y="1" relative="1" as="geometry"><mxPoint x="539" y="830" as="targetPoint"/><Array as="points"/><mxPoint as="offset"/></mxGeometry></mxCell><mxCell id="ysVK2l12Keg3ZwGEDK91-39" value="" style="rhombus;fillColor=#A8DADC;strokeColor=#457B9D;fontColor=#1D3557;rounded=1;" parent="WIyWlLk6GJQsqaUBKTNV-1" vertex="1"><mxGeometry x="524" y="720" width="30" height="30" as="geometry"/></mxCell><mxCell id="ysVK2l12Keg3ZwGEDK91-42" style="edgeStyle=orthogonalEdgeStyle;orthogonalLoop=1;jettySize=auto;html=1;endArrow=block;endFill=0;labelBackgroundColor=#F1FAEE;strokeColor=#457B9D;fontColor=#1D3557;" parent="WIyWlLk6GJQsqaUBKTNV-1" source="ysVK2l12Keg3ZwGEDK91-41" target="ysVK2l12Keg3ZwGEDK91-39" edge="1"><mxGeometry relative="1" as="geometry"/></mxCell><mxCell id="ysVK2l12Keg3ZwGEDK91-41" value="Inform player about enemy health" style="whiteSpace=wrap;html=1;fillColor=#A8DADC;strokeColor=#457B9D;fontColor=#1D3557;rounded=1;" parent="WIyWlLk6GJQsqaUBKTNV-1" vertex="1"><mxGeometry x="280" y="715" width="120" height="40" as="geometry"/></mxCell><mxCell id="ysVK2l12Keg3ZwGEDK91-46" value="" style="ellipse;html=1;shape=endState;fillColor=#A8DADC;strokeColor=#457B9D;fontColor=#1D3557;rounded=1;" parent="WIyWlLk6GJQsqaUBKTNV-1" vertex="1"><mxGeometry x="325" y="880" width="30" height="30" as="geometry"/></mxCell><mxCell id="ysVK2l12Keg3ZwGEDK91-48" style="edgeStyle=orthogonalEdgeStyle;orthogonalLoop=1;jettySize=auto;html=1;endArrow=block;endFill=0;labelBackgroundColor=#F1FAEE;strokeColor=#457B9D;fontColor=#1D3557;" parent="WIyWlLk6GJQsqaUBKTNV-1" source="ysVK2l12Keg3ZwGEDK91-47" target="ysVK2l12Keg3ZwGEDK91-46" edge="1"><mxGeometry relative="1" as="geometry"><Array as="points"><mxPoint x="140" y="895"/></Array></mxGeometry></mxCell><mxCell id="ysVK2l12Keg3ZwGEDK91-47" value="Inform player &quot;enemy dead&quot;" style="whiteSpace=wrap;html=1;fillColor=#A8DADC;strokeColor=#457B9D;fontColor=#1D3557;rounded=1;" parent="WIyWlLk6GJQsqaUBKTNV-1" vertex="1"><mxGeometry x="80" y="830" width="120" height="40" as="geometry"/></mxCell><mxCell id="ysVK2l12Keg3ZwGEDK91-50" style="edgeStyle=orthogonalEdgeStyle;orthogonalLoop=1;jettySize=auto;html=1;endArrow=block;endFill=0;labelBackgroundColor=#F1FAEE;strokeColor=#457B9D;fontColor=#1D3557;" parent="WIyWlLk6GJQsqaUBKTNV-1" source="ysVK2l12Keg3ZwGEDK91-49" target="ysVK2l12Keg3ZwGEDK91-46" edge="1"><mxGeometry relative="1" as="geometry"><Array as="points"><mxPoint x="539" y="895"/></Array></mxGeometry></mxCell><mxCell id="ysVK2l12Keg3ZwGEDK91-49" value="Inform player &quot;player fled&quot;" style="whiteSpace=wrap;html=1;fillColor=#A8DADC;strokeColor=#457B9D;fontColor=#1D3557;rounded=1;" parent="WIyWlLk6GJQsqaUBKTNV-1" vertex="1"><mxGeometry x="479" y="820" width="120" height="40" as="geometry"/></mxCell></root></mxGraphModel></diagram></mxfile>